#!OML:ASF E:/inclinewalkrobotboard/Project1/Captureday1/Session1/subject1.ASF
:FULLY-SPECIFIED
:DEGREES
101
root 0 0 0 -2.7794627137587056 -0.12381520768160925 1.1891203706997608
lowerback 10.360538702066634 -1.159880791812098 -2.998278369282727
upperback 0.5958648262616539 -1.781303378302423 1.6467657585334745
thorax -5.091029515030264 -0.8001820466003986 3.654589383231268
lowerneck -16.782931885735465 -2.6144227694516156 -2.2936633075434933
upperneck 19.52670364399788 -3.170396244788941 0.5329098439911641
head 8.914166609727513 -1.5946619404111444 0.1517791989373225
rclavicle -4.442652817739773E-16 -3.1856431452370926E-16
rhumerus -29.006712838006628 -17.938309756899123 -78.01772179482559
rradius 26.75970087778587
rwrist 4.41746893257633
rhand -17.69438189029513 22.41901003976242
rfingers 7.125020000000023
rthumb 8.557018857385955 -7.397029610330232
lclavicle -7.546066380003909E-16 -1.9339180348108584E-16
lhumerus -28.787715731925 -3.2123914226098194 82.1873912604813
lradius 35.569303684989585
lwrist 5.981516957124269
lhand -24.637417930093086 24.45962280200783
lfingers 7.123073157010778
lthumb 1.8328599755957367 53.77695972143381
rfemur -8.031117290393174 8.142683045813117 27.684852239756026
rtibia 24.799869088500177
rfoot -14.709226192207225 -7.772099733133493
rtoes -0.906439981333202
lfemur 2.668813501954732 -2.245625211361903 -24.785566984188936
ltibia 28.027241544908243
lfoot -11.53932372115828 -3.0513764384748843
ltoes -5.7710266013548175
102
root 0 0 0 -2.7450936624443516 0.048826976245559095 0.8298626569844734
lowerback 10.378422170864978 -1.0543378147701232 -2.6188810301336036
upperback 0.5364462863139017 -1.5941579504443917 1.7048952923526803
thorax -5.165301209111663 -0.7133137241649936 3.4750148261500713
lowerneck -17.067730830859322 -2.6321862573819925 -2.1557983377386662
upperneck 19.69040748047726 -3.1887922994643185 0.3709125874268473
head 9.01310150139895 -1.6003854542789688 0.06806646088989643
rclavicle -4.563130592881867E-16 -3.0603360769621644E-16
rhumerus -28.79750593331113 -17.756060949627297 -77.97224854917678
rradius 26.948268546967675
rwrist 4.458468748473542
rhand -17.729255267385632 22.27244072326306
rfingers 7.125020000000021
rthumb 8.524815441947187 -7.541166567580813
lclavicle -7.510463633680118E-16 -1.912840450675117E-16
lhumerus -28.899119694570537 -3.0830555322571094 82.19394797754254
lradius 35.335727683647555
lwrist 5.962396826133808
lhand -24.7138059614185 24.417641561334364
lfingers 7.12311489375856
lthumb 1.7620580978967197 53.754178693189175
rfemur -7.207600403647675 7.179830570906091 28.5887580793377
rtibia 29.4282004605012
rfoot -12.680068674760825 -6.699281485641274
rtoes 1.6326175875372444
lfemur -2.823823026376692 -1.2980566910171183 -21.71715101038439
ltibia 36.34682693582539
lfoot -6.611552620746689 -5.377967962143945
ltoes -6.073636611634084
103
root 0 0 0 -2.6980111392839374 0.10275151693172369 0.29905164491875436
lowerback 10.400474465418664 -0.8769957781303709 -2.047562121382114
upperback 0.479020363480938 -1.2896867322061012 1.7631400944431848
thorax -5.23845674254583 -0.5721465777518893 3.1717465053493994
lowerneck -17.33642813692161 -2.659350417903569 -2.0074388220546338
upperneck 19.840820412531894 -3.2218585633456907 0.21263003522805857
head 9.10772101527316 -1.6124655097680876 -0.018787643353243233
rclavicle -4.605885214574769E-16 -3.035195756966692E-16
rhumerus -28.750380754029067 -17.715500104176698 -77.96567365086561
rradius 26.98856018733028
rwrist 4.466060334921138
rhand -17.7379731371529 22.239886998426755
rfingers 7.125020000000021
rthumb 8.517697802729206 -7.573752554482116
lclavicle -7.479682752375133E-16 -1.8992256039302162E-16
lhumerus -28.970317677440807 -3.0033099752201338 82.20007074398076
lradius 35.18668367521413
lwrist 5.95020901175643
lhand -24.76185242992633 24.39175345794486
lfingers 7.123148084545646
lthumb 1.7162971836562946 53.74076594763573
rfemur -6.061449858902531 6.931299635677114 29.41864044180178
rtibia 30.520503781572486
rfoot -12.279716121484721 -6.1728066859370445
rtoes 2.681069860665348
lfemur -9.352733676910326 -0.31776070166183823 -18.167069675839308
ltibia 44.96353028017265
lfoot -1.6521278512907571 -7.345098816240084
ltoes -6.261457480494
104
root 0 0 0 -2.6194043656195776 -0.0114096491182476 -0.6125458299504892
lowerback 10.434116198668606 -0.5526290534862085 -1.0581932354580572
upperback 0.41271679301552755 -0.741184941634669 1.834344079033758
thorax -5.324937382463431 -0.31813397603731813 2.6148487567734757
lowerneck -17.63505524159787 -2.709154083082284 -1.8137095291833125
upperneck 20.006611693803276 -3.2896475305161004 0.02939398410735894
head 9.214540567215177 -1.6374102048640302 -0.12784734866456082
rclavicle -4.629388785217021E-16 -3.125389196723856E-16
rhumerus -28.817323106053237 -17.777031728900916 -77.9848098695186
rradius 26.921230263200187
rwrist 4.451482986752974
rhand -17.725787440648034 22.289958260781685
rfingers 7.1250200000000214
rthumb 8.528361976630444 -7.524152519722641
lclavicle -7.397932317945418E-16 -1.998894465564757E-16
lhumerus -29.07731848571096 -2.8843228236768432 82.20942124497168
lradius 34.96433036231169
lwrist 5.932939571102841
lhand -24.833971287610773 24.353389285659958
lfingers 7.123214359477456
lthumb 1.6483433311481672 53.71790237265306
rfemur -4.6272560295519956 7.028037445205395 30.319779742159582
rtibia 29.830138946824434
rfoot -12.705567564478908 -5.88333060860239
rtoes 3.069917444149424
lfemur -16.40136704494896 0.5883429592751988 -14.410251916588107
ltibia 53.12437523187533
lfoot 3.031843612475946 -8.846924943581204
ltoes -6.293734924092469
105
root 0 0 0 -2.5047105371650726 -0.52271863095676 -1.933280650443757
lowerback 10.470416775960985 -0.042596572369208996 0.3872540641784097
upperback 0.3674483095568939 0.10475113066831065 1.887474409706991
thorax -5.387022741621831 0.07272811377075644 1.7441064072006582
lowerneck -17.81223650880817 -2.79140229303566 -1.6301811718620005
upperneck 20.08638387501207 -3.4154898239971585 -0.08439878460223227
head 9.276756230442455 -1.6845135071041086 -0.21904841153686982
rclavicle -4.624149498142852E-16 -3.233159335112212E-16
rhumerus -28.856250859806696 -17.802121338143046 -78.00136779953138
rradius 26.888898263997806
rwrist 4.44212670983065
rhand -17.716394213165152 22.31665053091201
rfingers 7.1250200000000214
rthumb 8.535358041367271 -7.497384663905063
lclavicle -7.292921493763671E-16 -2.0889260344238256E-16
lhumerus -29.188989743945356 -2.7601669435138305 82.21759642469303
lradius 34.72379730964338
lwrist 5.912652321834663
lhand -24.906763220442457 24.312123306503004
lfingers 7.1232824393206435
lthumb 1.578821488809183 53.69675658598833
rfemur -3.437227384121268 7.310831052171681 30.994671597625832
rtibia 28.26709182922672
rfoot -13.506066938372399 -5.823862002189369
rtoes 2.9491505033301646
lfemur -20.147966580688806 0.852194123357946 -12.505186010360028
ltibia 55.898221682836706
lfoot 4.651824023195072 -8.820424896486392
ltoes -6.072765686230103
